<mxfile host="app.diagrams.net" modified="2024-02-28T00:34:33.467Z" agent="Mozilla/5.0 (Macintosh; Intel Mac OS X 10_15_7) AppleWebKit/537.36 (KHTML, like Gecko) Chrome/122.0.0.0 Safari/537.36" version="23.1.2" etag="qTq5E-23_DGzZJ24dMBN" type="github">
  <diagram name="PÃ¡gina-1" id="Vw1v0IomaXZ5_EI78LUC">
    <mxGraphModel>
      <root>
        <mxCell id="0" />
        <mxCell id="1" parent="0" />
      </root>
    </mxGraphModel>
  </diagram>
</mxfile>
